<?xml version="1.0" encoding="UTF-8" standalone="no"?>
<!-- Generator: Adobe Illustrator 16.0.0, SVG Export Plug-In . SVG Version: 6.00 Build 0)  -->

<svg
   xmlns:dc="http://purl.org/dc/elements/1.1/"
   xmlns:cc="http://creativecommons.org/ns#"
   xmlns:rdf="http://www.w3.org/1999/02/22-rdf-syntax-ns#"
   xmlns:svg="http://www.w3.org/2000/svg"
   xmlns="http://www.w3.org/2000/svg"
   xmlns:sodipodi="http://sodipodi.sourceforge.net/DTD/sodipodi-0.dtd"
   xmlns:inkscape="http://www.inkscape.org/namespaces/inkscape"
   version="1.1"
   id="Capa_1"
   x="0px"
   y="0px"
   width="50"
   height="50"
   viewBox="0 0 8.7890625 8.7890625"
   xml:space="preserve"
   sodipodi:docname="facebook.svg"
   inkscape:version="0.92.3 (2405546, 2018-03-11)"><metadata
   id="metadata3838"><rdf:RDF><cc:Work
       rdf:about=""><dc:format>image/svg+xml</dc:format><dc:type
         rdf:resource="http://purl.org/dc/dcmitype/StillImage" /><dc:title></dc:title></cc:Work></rdf:RDF></metadata><defs
   id="defs3836" /><sodipodi:namedview
   pagecolor="#ffffff"
   bordercolor="#666666"
   borderopacity="1"
   objecttolerance="10"
   gridtolerance="10"
   guidetolerance="10"
   inkscape:pageopacity="0"
   inkscape:pageshadow="2"
   inkscape:window-width="1366"
   inkscape:window-height="705"
   id="namedview3834"
   showgrid="false"
   fit-margin-top="0"
   fit-margin-left="0"
   fit-margin-right="0"
   fit-margin-bottom="0"
   inkscape:zoom="1.046875"
   inkscape:cx="141.37313"
   inkscape:cy="23.880593"
   inkscape:window-x="-8"
   inkscape:window-y="-8"
   inkscape:window-maximized="1"
   inkscape:current-layer="Capa_1" />
<g
   id="g3801"
   transform="scale(0.09765625)">
	<path
   id="Facebook__x28_alt_x29_"
   d="M 90,15.001 C 90,7.119 82.884,0 75,0 H 15 C 7.116,0 0,7.119 0,15.001 V 74.999 C 0,82.881 7.116,90 15.001,90 H 45 V 56 H 34 V 41 H 45 V 35.156 C 45,25.077 52.568,16 61.875,16 H 74 V 31 H 61.875 C 60.548,31 59,32.611 59,35.024 V 41 H 74 V 56 H 59 v 34 h 16 c 7.884,0 15,-7.119 15,-15.001 z"
   inkscape:connector-curvature="0"
   style="fill:#0062aa" />
</g>
<g
   id="g3803"
   transform="translate(-20.149254,-40.408698)">
</g>
<g
   id="g3805"
   transform="translate(-20.149254,-40.408698)">
</g>
<g
   id="g3807"
   transform="translate(-20.149254,-40.408698)">
</g>
<g
   id="g3809"
   transform="translate(-20.149254,-40.408698)">
</g>
<g
   id="g3811"
   transform="translate(-20.149254,-40.408698)">
</g>
<g
   id="g3813"
   transform="translate(-20.149254,-40.408698)">
</g>
<g
   id="g3815"
   transform="translate(-20.149254,-40.408698)">
</g>
<g
   id="g3817"
   transform="translate(-20.149254,-40.408698)">
</g>
<g
   id="g3819"
   transform="translate(-20.149254,-40.408698)">
</g>
<g
   id="g3821"
   transform="translate(-20.149254,-40.408698)">
</g>
<g
   id="g3823"
   transform="translate(-20.149254,-40.408698)">
</g>
<g
   id="g3825"
   transform="translate(-20.149254,-40.408698)">
</g>
<g
   id="g3827"
   transform="translate(-20.149254,-40.408698)">
</g>
<g
   id="g3829"
   transform="translate(-20.149254,-40.408698)">
</g>
<g
   id="g3831"
   transform="translate(-20.149254,-40.408698)">
</g>
</svg>