<?xml version="1.0" encoding="UTF-8" standalone="no"?>
<!-- Generator: Gravit.io -->

<svg
   xmlns:dc="http://purl.org/dc/elements/1.1/"
   xmlns:cc="http://creativecommons.org/ns#"
   xmlns:rdf="http://www.w3.org/1999/02/22-rdf-syntax-ns#"
   xmlns:svg="http://www.w3.org/2000/svg"
   xmlns="http://www.w3.org/2000/svg"
   xmlns:sodipodi="http://sodipodi.sourceforge.net/DTD/sodipodi-0.dtd"
   xmlns:inkscape="http://www.inkscape.org/namespaces/inkscape"
   style="isolation:isolate"
   viewBox="0 0 60.049999 55.715"
   width="60.049999"
   height="55.715"
   version="1.1"
   id="svg66"
   sodipodi:docname="icon2.svg"
   inkscape:version="0.92.3 (2405546, 2018-03-11)">
  <metadata
     id="metadata70">
    <rdf:RDF>
      <cc:Work
         rdf:about="">
        <dc:format>image/svg+xml</dc:format>
        <dc:type
           rdf:resource="http://purl.org/dc/dcmitype/StillImage" />
        <dc:title></dc:title>
      </cc:Work>
    </rdf:RDF>
  </metadata>
  <sodipodi:namedview
     pagecolor="#ffffff"
     bordercolor="#666666"
     borderopacity="1"
     objecttolerance="10"
     gridtolerance="10"
     guidetolerance="10"
     inkscape:pageopacity="0"
     inkscape:pageshadow="2"
     inkscape:window-width="1366"
     inkscape:window-height="705"
     id="namedview68"
     showgrid="false"
     fit-margin-top="0"
     fit-margin-left="0"
     fit-margin-right="0"
     fit-margin-bottom="0"
     inkscape:zoom="0.66764275"
     inkscape:cx="34.357"
     inkscape:cy="15.078"
     inkscape:window-x="-8"
     inkscape:window-y="-8"
     inkscape:window-maximized="1"
     inkscape:current-layer="svg66" />
  <defs
     id="defs44">
    <clipPath
       id="_clipPath_9BMd1YpHfxfN0bgOqBhBflBAeGjwv23U">
      <rect
         width="1366"
         height="768"
         id="rect41"
         x="0"
         y="0" />
    </clipPath>
  </defs>
  <g
     clip-path="url(#_clipPath_9BMd1YpHfxfN0bgOqBhBflBAeGjwv23U)"
     id="g64"
     transform="translate(-648.643,-343.363)">
    <g
       id="delivery-motorbike">
      <g
         id="g61">
        <path
           d="m 703.994,343.363 h -6.433 v 3.143 c 0,0.394 -0.271,0.713 -0.605,0.713 h -1.4 c -0.334,0 -0.605,-0.32 -0.605,-0.713 v -3.143 h -6.433 c -0.482,0 -0.874,0.461 -0.874,1.03 v 16.177 c 0,0.569 0.392,1.029 0.874,1.029 h 15.476 c 0.482,0 0.873,-0.46 0.873,-1.029 v -16.177 c 0,-0.569 -0.391,-1.03 -0.873,-1.03 z"
           id="path46"
           inkscape:connector-curvature="0"
           style="fill:#006737" />
        <g
           id="g59">
          <g
             id="g55">
            <g
               id="Group">
              <path
                 d="m 695.033,399.078 c -3.908,0 -7.087,-3.747 -7.087,-8.352 0,-4.606 3.179,-8.353 7.087,-8.353 3.909,0 7.089,3.747 7.089,8.353 0,4.605 -3.18,8.352 -7.089,8.352 z m 0,-12.496 c -1.938,0 -3.516,1.859 -3.516,4.144 0,2.284 1.578,4.143 3.516,4.143 1.939,0 3.517,-1.859 3.517,-4.143 0,-2.285 -1.578,-4.144 -3.517,-4.144 z"
                 id="path48"
                 inkscape:connector-curvature="0"
                 style="fill:#006737" />
            </g>
            <g
               id="g53">
              <path
                 d="m 655.731,399.078 c -3.908,0 -7.088,-3.747 -7.088,-8.352 0,-4.606 3.18,-8.353 7.088,-8.353 3.908,0 7.088,3.747 7.088,8.353 0,4.605 -3.18,8.352 -7.088,8.352 z m 0,-12.496 c -1.939,0 -3.516,1.859 -3.516,4.144 0,2.284 1.577,4.143 3.516,4.143 1.939,0 3.516,-1.859 3.516,-4.143 0,-2.285 -1.577,-4.144 -3.516,-4.144 z"
                 id="path51"
                 inkscape:connector-curvature="0"
                 style="fill:#006737" />
            </g>
          </g>
          <path
             d="m 698.418,374.38 v -2.289 h 4.941 c 1.118,0 2.024,-1.067 2.024,-2.384 v -1.698 c 0,-1.316 -0.906,-2.384 -2.024,-2.384 h -24.762 c -1.118,0 -2.025,1.068 -2.025,2.384 v 1.723 c 0,1.317 0.907,2.385 2.025,2.385 h 2.737 v 9.165 h -13.717 c -1.005,-1.846 -2.323,-3.435 -3.864,-4.662 l 1.701,-7.232 3.695,-15.699 h 4.986 c 1.118,0 2.024,-1.068 2.024,-2.385 0,-1.317 -0.906,-2.385 -2.024,-2.385 0,0 -5.246,0 -7.088,0 -0.252,0 -0.691,0.125 -0.906,0.25 -0.312,0.183 -0.585,0.46 -0.784,0.812 l -14.359,25.368 c -0.428,0.743 -0.744,1.677 -0.508,2.497 0.367,1.275 1.608,1.73 2.878,1.286 0.965,-0.337 1.766,-0.484 2.785,-0.484 5.272,0 9.562,5.054 9.562,11.267 0,1.318 0.905,2.386 2.023,2.386 h 15.71 c 1.118,0 2.024,-1.068 2.024,-2.386 0,-6.213 4.289,-11.267 9.561,-11.267 5.273,0 9.562,5.054 9.562,11.267 0,1.318 0.907,2.386 2.024,2.386 1.118,0 2.024,-1.068 2.024,-2.386 0,-7.466 -4.353,-13.757 -10.225,-15.535 z"
             stroke-miterlimit="4"
             id="path57"
             inkscape:connector-curvature="0"
             style="vector-effect:non-scaling-stroke;fill:#006737;stroke:#006737;stroke-width:0.1;stroke-linecap:butt;stroke-linejoin:miter;stroke-miterlimit:4" />
        </g>
      </g>
    </g>
  </g>
</svg>
