<?xml version="1.0" encoding="UTF-8" standalone="no"?>
<!-- Generator: Gravit.io -->

<svg
   xmlns:dc="http://purl.org/dc/elements/1.1/"
   xmlns:cc="http://creativecommons.org/ns#"
   xmlns:rdf="http://www.w3.org/1999/02/22-rdf-syntax-ns#"
   xmlns:svg="http://www.w3.org/2000/svg"
   xmlns="http://www.w3.org/2000/svg"
   xmlns:sodipodi="http://sodipodi.sourceforge.net/DTD/sodipodi-0.dtd"
   xmlns:inkscape="http://www.inkscape.org/namespaces/inkscape"
   style="isolation:isolate"
   viewBox="0 0 60 55.714001"
   width="60"
   height="55.714001"
   version="1.1"
   id="svg36"
   sodipodi:docname="kkk.svg"
   inkscape:version="0.92.3 (2405546, 2018-03-11)">
  <metadata
     id="metadata40">
    <rdf:RDF>
      <cc:Work
         rdf:about="">
        <dc:format>image/svg+xml</dc:format>
        <dc:type
           rdf:resource="http://purl.org/dc/dcmitype/StillImage" />
        <dc:title></dc:title>
      </cc:Work>
    </rdf:RDF>
  </metadata>
  <sodipodi:namedview
     pagecolor="#ffffff"
     bordercolor="#666666"
     borderopacity="1"
     objecttolerance="10"
     gridtolerance="10"
     guidetolerance="10"
     inkscape:pageopacity="0"
     inkscape:pageshadow="2"
     inkscape:window-width="1366"
     inkscape:window-height="705"
     id="namedview38"
     showgrid="false"
     fit-margin-top="0"
     fit-margin-left="0"
     fit-margin-right="0"
     fit-margin-bottom="0"
     inkscape:zoom="0.66764275"
     inkscape:cx="405.497"
     inkscape:cy="-129.552"
     inkscape:window-x="-8"
     inkscape:window-y="-8"
     inkscape:window-maximized="1"
     inkscape:current-layer="svg36" />
  <defs
     id="defs5">
    <clipPath
       id="_clipPath_X1BxKlB1meWqRnrsxNLR10EtTibKMfQq">
      <rect
         width="1366"
         height="768"
         id="rect2"
         x="0"
         y="0" />
    </clipPath>
  </defs>
  <g
     clip-path="url(#_clipPath_X1BxKlB1meWqRnrsxNLR10EtTibKMfQq)"
     id="g34"
     transform="translate(-277.503,-198.734)">
    <g
       id="g32">
      <g
         id="g30">
        <g
           id="Group">
          <path
             d="m 309.154,223.865 0.307,-0.575 -1.958,2.123 c 0.41,0 0.822,-0.004 1.228,-0.017 0.038,-0.533 0.17,-1.053 0.423,-1.531 z"
             id="path7"
             inkscape:connector-curvature="0"
             style="fill:#006737" />
          <path
             d="m 308.013,214.815 2.488,6.526 3.342,-6.286 c 0.08,-0.146 0.176,-0.275 0.274,-0.406 -1.131,-0.796 -2.396,-1.449 -3.78,-1.829 2.08,-1.517 3.51,-4.51 3.51,-7.203 0,-3.802 -2.839,-6.883 -6.344,-6.883 -3.505,0 -6.345,3.081 -6.345,6.883 0,2.696 1.43,5.686 3.51,7.203 -1.218,0.334 -2.354,0.874 -3.382,1.538 0.106,0.351 0.178,0.72 0.178,1.111 0,0.639 -0.145,1.221 -0.38,1.734 0.233,0.491 0.38,1.042 0.38,1.633 0,0.639 -0.145,1.223 -0.38,1.736 0.235,0.494 0.38,1.044 0.38,1.631 0,0.644 -0.145,1.226 -0.38,1.741 0.154,0.324 0.248,0.675 0.309,1.044 1.84,0.284 3.974,0.426 6.108,0.426 l -3.22,-3.496 2.708,-7.107 h -0.027 l -1.052,-1.308 c 0.509,0.198 1.041,0.318 1.59,0.318 0.55,0 1.08,-0.118 1.588,-0.315 l -1.051,1.306 h -0.025 v 0.003 z"
             id="path9"
             inkscape:connector-curvature="0"
             style="fill:#006737" />
          <path
             d="m 288.778,216.943 h 9.378 c 0.669,0 1.214,-0.588 1.214,-1.311 v -0.164 c 0,-0.724 -0.545,-1.319 -1.214,-1.319 h -9.378 c -0.667,0 -1.214,0.595 -1.214,1.319 v 0.164 c 0.002,0.723 0.549,1.311 1.214,1.311 z"
             id="path11"
             inkscape:connector-curvature="0"
             style="fill:#006737" />
          <path
             d="m 288.778,220.314 h 9.378 c 0.669,0 1.214,-0.586 1.214,-1.314 v -0.163 c 0,-0.725 -0.545,-1.316 -1.214,-1.316 h -9.378 c -0.667,0 -1.214,0.591 -1.214,1.316 V 219 c 0.002,0.723 0.549,1.314 1.214,1.314 z"
             id="path13"
             inkscape:connector-curvature="0"
             style="fill:#006737" />
          <path
             d="m 288.778,223.686 h 9.378 c 0.669,0 1.214,-0.591 1.214,-1.315 v -0.164 c 0,-0.722 -0.545,-1.313 -1.214,-1.313 h -9.378 c -0.667,0 -1.214,0.589 -1.214,1.313 v 0.164 c 0.002,0.724 0.549,1.315 1.214,1.315 z"
             id="path15"
             inkscape:connector-curvature="0"
             style="fill:#006737" />
          <path
             d="m 288.778,227.057 h 9.378 c 0.669,0 1.214,-0.591 1.214,-1.313 v -0.166 c 0,-0.72 -0.545,-1.315 -1.214,-1.315 h -9.378 c -0.667,0 -1.214,0.595 -1.214,1.315 v 0.166 c 0.002,0.722 0.549,1.313 1.214,1.313 z"
             id="path17"
             inkscape:connector-curvature="0"
             style="fill:#006737" />
          <path
             d="m 315.659,216.192 -4.689,8.813 c -0.334,0.626 -0.134,1.435 0.444,1.797 l 0.127,0.086 c 0.577,0.356 1.326,0.142 1.658,-0.482 l 4.692,-8.812 c 0.329,-0.624 0.131,-1.437 -0.447,-1.801 l -0.131,-0.083 c -0.575,-0.362 -1.322,-0.144 -1.654,0.482 z"
             id="path19"
             inkscape:connector-curvature="0"
             style="fill:#006737" />
          <path
             d="m 317.735,219 c 0,0.723 0.544,1.314 1.212,1.314 h 9.381 c 0.666,0 1.21,-0.586 1.21,-1.314 v -0.163 c 0,-0.725 -0.544,-1.316 -1.21,-1.316 h -9.381 c -0.666,0 -1.212,0.591 -1.212,1.316 z"
             id="path21"
             inkscape:connector-curvature="0"
             style="fill:#006737" />
          <path
             d="m 329.536,222.207 c 0,-0.722 -0.542,-1.313 -1.21,-1.313 h -9.383 c -0.664,0 -1.208,0.589 -1.208,1.313 v 0.164 c 0,0.724 0.542,1.315 1.208,1.315 h 9.383 c 0.663,0 1.21,-0.591 1.21,-1.315 z"
             id="path23"
             inkscape:connector-curvature="0"
             style="fill:#006737" />
          <path
             d="m 328.328,224.263 h -9.381 c -0.666,0 -1.212,0.595 -1.212,1.315 v 0.166 c 0,0.722 0.544,1.313 1.212,1.313 h 9.381 c 0.666,0 1.21,-0.591 1.21,-1.313 v -0.166 c -0.002,-0.724 -0.544,-1.315 -1.21,-1.315 z"
             id="path25"
             inkscape:connector-curvature="0"
             style="fill:#006737" />
          <path
             d="m 337.503,233.027 v -3.005 l -5.574,-3.913 3.934,3.913 h -56.714 l 3.936,-3.913 -5.582,3.913 v 3.005 h 5.582 v 18.056 h -1.388 v 1.697 h -2.064 v 1.668 h 55.747 v -1.668 h -2.071 v -1.697 h -1.38 v -18.056 z"
             id="path27"
             inkscape:connector-curvature="0"
             style="fill:#006737" />
        </g>
      </g>
    </g>
  </g>
</svg>
