<?xml version="1.0" encoding="UTF-8" standalone="no"?>
<!-- Generator: Gravit.io -->

<svg
   xmlns:dc="http://purl.org/dc/elements/1.1/"
   xmlns:cc="http://creativecommons.org/ns#"
   xmlns:rdf="http://www.w3.org/1999/02/22-rdf-syntax-ns#"
   xmlns:svg="http://www.w3.org/2000/svg"
   xmlns="http://www.w3.org/2000/svg"
   xmlns:sodipodi="http://sodipodi.sourceforge.net/DTD/sodipodi-0.dtd"
   xmlns:inkscape="http://www.inkscape.org/namespaces/inkscape"
   style="isolation:isolate"
   viewBox="0 0 70 55.431"
   width="70"
   height="55.431"
   version="1.1"
   id="svg46"
   sodipodi:docname="icon6.svg"
   inkscape:version="0.92.3 (2405546, 2018-03-11)">
  <metadata
     id="metadata50">
    <rdf:RDF>
      <cc:Work
         rdf:about="">
        <dc:format>image/svg+xml</dc:format>
        <dc:type
           rdf:resource="http://purl.org/dc/dcmitype/StillImage" />
        <dc:title></dc:title>
      </cc:Work>
    </rdf:RDF>
  </metadata>
  <sodipodi:namedview
     pagecolor="#ffffff"
     bordercolor="#666666"
     borderopacity="1"
     objecttolerance="10"
     gridtolerance="10"
     guidetolerance="10"
     inkscape:pageopacity="0"
     inkscape:pageshadow="2"
     inkscape:window-width="690"
     inkscape:window-height="480"
     id="namedview48"
     showgrid="false"
     fit-margin-top="0"
     fit-margin-left="0"
     fit-margin-right="0"
     fit-margin-bottom="0"
     inkscape:zoom="0.66764275"
     inkscape:cx="65.208"
     inkscape:cy="-36.279"
     inkscape:window-x="0"
     inkscape:window-y="0"
     inkscape:window-maximized="1"
     inkscape:current-layer="svg46" />
  <defs
     id="defs34">
    <clipPath
       id="_clipPath_8kTAv5mbd3bEqfpUakNmLxnppic872Us">
      <rect
         width="1366"
         height="768"
         id="rect31"
         x="0"
         y="0" />
    </clipPath>
  </defs>
  <g
     clip-path="url(#_clipPath_8kTAv5mbd3bEqfpUakNmLxnppic872Us)"
     id="g44"
     transform="translate(-617.792,-292.29)">
    <g
       id="computer-worker-on-frontal-view">
      <g
         id="Group">
        <path
           d="m 655.429,320.931 -2.637,-2.637 -2.637,2.637 0.838,0.837 v 2.52 h 3.599 v -2.52 z"
           id="path36"
           inkscape:connector-curvature="0"
           style="fill:#006737" />
        <path
           d="m 664.482,304.188 c 0,-6.571 -5.327,-11.898 -11.897,-11.898 -6.571,0 -11.897,5.327 -11.897,11.898 0,6.57 5.326,11.897 11.897,11.897 6.57,0 11.897,-5.327 11.897,-11.897 z"
           id="path38"
           inkscape:connector-curvature="0"
           style="fill:#006737" />
        <path
           d="m 680.648,344.953 c 0.029,-0.008 0.057,-0.016 0.086,-0.024 0.044,-0.013 0.088,-0.025 0.132,-0.039 0.031,-0.009 0.062,-0.02 0.093,-0.031 0.043,-0.014 0.086,-0.028 0.128,-0.044 0.032,-0.012 0.064,-0.025 0.096,-0.038 0.041,-0.016 0.082,-0.031 0.122,-0.048 0.032,-0.014 0.065,-0.03 0.098,-0.044 0.038,-0.018 0.077,-0.035 0.116,-0.054 0.031,-0.015 0.063,-0.032 0.095,-0.049 0.038,-0.019 0.077,-0.038 0.115,-0.059 0.029,-0.016 0.059,-0.034 0.089,-0.051 0.039,-0.023 0.078,-0.045 0.116,-0.068 0.027,-0.017 0.054,-0.035 0.081,-0.052 0.04,-0.026 0.08,-0.052 0.12,-0.079 0.025,-0.017 0.049,-0.035 0.074,-0.052 0.041,-0.029 0.081,-0.058 0.121,-0.089 0.023,-0.017 0.046,-0.036 0.07,-0.054 0.039,-0.031 0.079,-0.064 0.117,-0.096 0.009,-0.008 0.019,-0.015 0.028,-0.023 0.015,-0.013 0.029,-0.026 0.044,-0.039 0.035,-0.031 0.07,-0.062 0.104,-0.093 0.027,-0.026 0.054,-0.051 0.081,-0.078 0.028,-0.026 0.056,-0.054 0.083,-0.082 0.031,-0.031 0.061,-0.063 0.091,-0.095 0.021,-0.023 0.042,-0.046 0.063,-0.069 0.033,-0.038 0.066,-0.075 0.098,-0.114 0.016,-0.019 0.032,-0.038 0.048,-0.058 0.034,-0.042 0.068,-0.085 0.101,-0.128 0.013,-0.017 0.025,-0.034 0.038,-0.052 0.034,-0.045 0.067,-0.091 0.098,-0.138 0.012,-0.017 0.024,-0.035 0.036,-0.053 0.031,-0.046 0.061,-0.093 0.09,-0.14 0.013,-0.021 0.025,-0.042 0.038,-0.063 0.026,-0.044 0.052,-0.089 0.077,-0.133 0.015,-0.028 0.029,-0.056 0.044,-0.084 0.02,-0.038 0.041,-0.077 0.06,-0.117 0.017,-0.036 0.034,-0.072 0.051,-0.109 0.015,-0.032 0.03,-0.064 0.043,-0.096 0.02,-0.044 0.038,-0.09 0.057,-0.135 0.009,-0.025 0.019,-0.049 0.029,-0.074 0.02,-0.052 0.038,-0.105 0.056,-0.158 0.006,-0.019 0.013,-0.038 0.019,-0.057 0.019,-0.057 0.036,-0.114 0.053,-0.173 0.004,-0.016 0.009,-0.031 0.013,-0.047 0.016,-0.059 0.031,-0.118 0.045,-0.178 0.003,-0.016 0.007,-0.032 0.011,-0.049 0.013,-0.057 0.024,-0.114 0.035,-0.172 0.003,-0.021 0.007,-0.041 0.011,-0.061 0.009,-0.054 0.017,-0.107 0.024,-0.161 0.004,-0.027 0.007,-0.053 0.01,-0.079 0.006,-0.048 0.011,-0.096 0.015,-0.144 0.003,-0.034 0.005,-0.069 0.008,-0.103 0.003,-0.042 0.005,-0.083 0.007,-0.125 10e-4,-0.042 0.002,-0.083 0.003,-0.125 0,-0.022 0.002,-0.045 0.002,-0.067 0,-0.015 -10e-4,-0.028 -10e-4,-0.042 -10e-4,-0.046 -0.002,-0.091 -0.004,-0.136 -10e-4,-0.034 -0.002,-0.069 -0.004,-0.104 -0.002,-0.044 -0.006,-0.088 -0.01,-0.132 -0.003,-0.036 -0.006,-0.072 -0.009,-0.107 -0.005,-0.041 -0.01,-0.082 -0.016,-0.123 -0.005,-0.038 -0.009,-0.076 -0.015,-0.114 -0.006,-0.038 -0.013,-0.074 -0.02,-0.111 -0.008,-0.041 -0.015,-0.082 -0.023,-0.123 -0.007,-0.034 -0.016,-0.067 -0.023,-0.101 -0.011,-0.043 -0.02,-0.086 -0.031,-0.128 -0.008,-0.032 -0.018,-0.064 -0.027,-0.096 -0.013,-0.044 -0.024,-0.087 -0.038,-0.13 -0.01,-0.032 -0.022,-0.064 -0.033,-0.097 -0.013,-0.041 -0.027,-0.083 -0.042,-0.124 -0.013,-0.034 -0.027,-0.067 -0.04,-0.101 -0.015,-0.039 -0.03,-0.078 -0.046,-0.117 -0.015,-0.034 -0.031,-0.068 -0.047,-0.103 -0.017,-0.037 -0.033,-0.074 -0.05,-0.11 -0.017,-0.034 -0.035,-0.068 -0.052,-0.102 -0.019,-0.036 -0.037,-0.072 -0.057,-0.108 -0.017,-0.032 -0.036,-0.063 -0.055,-0.095 -0.021,-0.037 -0.041,-0.073 -0.063,-0.11 -0.019,-0.029 -0.038,-0.058 -0.057,-0.087 -0.024,-0.038 -0.048,-0.076 -0.074,-0.113 -0.018,-0.028 -0.038,-0.054 -0.056,-0.08 -0.028,-0.039 -0.056,-0.077 -0.084,-0.115 -0.02,-0.026 -0.04,-0.051 -0.06,-0.076 -0.03,-0.037 -0.059,-0.074 -0.09,-0.111 -0.008,-0.01 -0.016,-0.021 -0.025,-0.031 l -15.343,-17.968 c -0.954,-1.116 -2.307,-1.686 -3.669,-1.682 v 6.662 h 2.067 c 1.354,0 2.457,1.102 2.457,2.456 v 10.48 c 1.323,0.827 2.204,2.296 2.204,3.971 0,1.597 -0.8,3.006 -2.02,3.851 h -2.582 c 0.758,-0.184 1.322,-0.866 1.322,-1.681 v -16.208 c 0,-0.956 -0.775,-1.732 -1.732,-1.732 h -25.981 c -0.957,0 -1.732,0.775 -1.732,1.732 v 16.208 c 0,0.815 0.563,1.497 1.322,1.681 h -2.582 c -1.22,-0.845 -2.02,-2.254 -2.02,-3.85 0,-1.676 0.881,-3.145 2.204,-3.972 v -10.479 c 0,-1.355 1.102,-2.457 2.457,-2.457 h 2.067 v -6.67 h -0.208 v 0.01 c -1.29,0.052 -2.556,0.621 -3.461,1.68 l -15.343,17.969 c -0.009,0.01 -0.017,0.021 -0.025,0.031 -0.03,0.036 -0.06,0.074 -0.09,0.111 -0.02,0.025 -0.04,0.05 -0.059,0.076 -0.029,0.038 -0.057,0.076 -0.084,0.114 -0.019,0.027 -0.038,0.053 -0.057,0.081 -0.025,0.037 -0.05,0.074 -0.074,0.113 -0.019,0.029 -0.038,0.058 -0.056,0.087 -0.022,0.036 -0.043,0.073 -0.064,0.11 -0.019,0.032 -0.038,0.063 -0.055,0.095 -0.019,0.036 -0.038,0.072 -0.056,0.108 -0.018,0.034 -0.036,0.068 -0.052,0.102 -0.018,0.036 -0.034,0.073 -0.051,0.11 -0.015,0.034 -0.032,0.069 -0.046,0.103 -0.017,0.039 -0.031,0.078 -0.047,0.116 -0.013,0.035 -0.027,0.068 -0.04,0.102 -0.015,0.041 -0.028,0.082 -0.042,0.124 -0.011,0.032 -0.023,0.064 -0.033,0.097 -0.014,0.043 -0.025,0.086 -0.038,0.129 -0.009,0.032 -0.019,0.064 -0.027,0.096 -0.011,0.043 -0.021,0.086 -0.03,0.129 -0.008,0.034 -0.017,0.067 -0.024,0.101 -0.008,0.041 -0.015,0.082 -0.022,0.122 -0.007,0.037 -0.015,0.074 -0.02,0.112 -0.006,0.037 -0.011,0.075 -0.016,0.114 -0.005,0.041 -0.011,0.082 -0.015,0.122 -0.004,0.036 -0.007,0.072 -0.01,0.108 -0.004,0.044 -0.007,0.088 -0.01,0.132 -0.002,0.034 -0.003,0.069 -0.004,0.104 -0.002,0.045 -0.003,0.09 -0.003,0.135 -10e-4,0.014 -10e-4,0.028 -10e-4,0.042 0,0.023 10e-4,0.046 10e-4,0.068 10e-4,0.042 0.002,0.083 0.004,0.125 10e-4,0.042 0.004,0.083 0.007,0.125 0.002,0.034 0.005,0.068 0.007,0.103 0.005,0.048 0.01,0.096 0.015,0.143 0.004,0.027 0.007,0.053 0.01,0.08 0.008,0.054 0.016,0.107 0.025,0.16 0.003,0.021 0.007,0.041 0.011,0.061 0.01,0.058 0.022,0.116 0.034,0.173 0.004,0.017 0.008,0.033 0.012,0.049 0.014,0.06 0.028,0.119 0.044,0.178 0.005,0.016 0.009,0.031 0.014,0.047 0.016,0.058 0.033,0.116 0.052,0.173 0.006,0.019 0.013,0.038 0.019,0.056 0.018,0.054 0.037,0.106 0.057,0.159 0.009,0.024 0.019,0.049 0.029,0.074 0.018,0.045 0.036,0.09 0.056,0.135 0.014,0.032 0.028,0.064 0.043,0.096 0.017,0.037 0.034,0.073 0.051,0.109 0.02,0.039 0.04,0.078 0.061,0.117 0.014,0.028 0.029,0.056 0.044,0.083 0.024,0.045 0.05,0.09 0.076,0.133 0.013,0.022 0.025,0.043 0.038,0.064 0.029,0.047 0.06,0.093 0.09,0.14 0.012,0.018 0.024,0.036 0.036,0.053 0.031,0.047 0.065,0.093 0.098,0.138 0.013,0.017 0.025,0.035 0.038,0.052 0.033,0.043 0.067,0.086 0.102,0.128 0.015,0.02 0.031,0.039 0.047,0.058 0.032,0.038 0.065,0.076 0.098,0.114 0.021,0.023 0.042,0.046 0.063,0.069 0.03,0.032 0.06,0.063 0.091,0.095 0.028,0.028 0.055,0.056 0.083,0.082 0.027,0.026 0.054,0.052 0.081,0.078 0.034,0.031 0.069,0.062 0.104,0.093 0.015,0.013 0.029,0.026 0.044,0.039 0.009,0.008 0.019,0.015 0.028,0.023 0.039,0.032 0.078,0.064 0.118,0.096 0.023,0.018 0.046,0.036 0.069,0.054 0.04,0.031 0.081,0.059 0.122,0.089 0.024,0.017 0.048,0.035 0.073,0.052 0.04,0.027 0.08,0.053 0.12,0.079 0.027,0.017 0.054,0.035 0.081,0.052 0.038,0.023 0.078,0.045 0.116,0.068 0.03,0.016 0.06,0.034 0.09,0.051 0.037,0.021 0.076,0.039 0.114,0.059 0.032,0.017 0.063,0.034 0.095,0.049 0.039,0.019 0.078,0.036 0.117,0.053 0.032,0.015 0.064,0.03 0.097,0.044 0.04,0.017 0.081,0.033 0.122,0.049 0.032,0.013 0.064,0.026 0.096,0.038 0.042,0.015 0.085,0.029 0.128,0.044 0.031,0.011 0.062,0.022 0.093,0.031 0.044,0.014 0.088,0.026 0.132,0.039 0.028,0.008 0.057,0.016 0.086,0.024 h -7.145 v 2.767 h 70 v -2.767 h -7.144 z"
           id="path40"
           inkscape:connector-curvature="0"
           style="fill:#006737" />
      </g>
    </g>
  </g>
</svg>
