<?xml version="1.0" encoding="UTF-8" standalone="no"?>
<!-- Generator: Gravit.io -->

<svg
   xmlns:dc="http://purl.org/dc/elements/1.1/"
   xmlns:cc="http://creativecommons.org/ns#"
   xmlns:rdf="http://www.w3.org/1999/02/22-rdf-syntax-ns#"
   xmlns:svg="http://www.w3.org/2000/svg"
   xmlns="http://www.w3.org/2000/svg"
   xmlns:sodipodi="http://sodipodi.sourceforge.net/DTD/sodipodi-0.dtd"
   xmlns:inkscape="http://www.inkscape.org/namespaces/inkscape"
   style="isolation:isolate"
   viewBox="0 0 71.300003 65.651215"
   width="71.300003"
   height="65.651215"
   version="1.1"
   id="svg124"
   sodipodi:docname="icon7.svg"
   inkscape:version="0.92.3 (2405546, 2018-03-11)">
  <metadata
     id="metadata128">
    <rdf:RDF>
      <cc:Work
         rdf:about="">
        <dc:format>image/svg+xml</dc:format>
        <dc:type
           rdf:resource="http://purl.org/dc/dcmitype/StillImage" />
        <dc:title></dc:title>
      </cc:Work>
    </rdf:RDF>
  </metadata>
  <sodipodi:namedview
     pagecolor="#ffffff"
     bordercolor="#666666"
     borderopacity="1"
     objecttolerance="10"
     gridtolerance="10"
     guidetolerance="10"
     inkscape:pageopacity="0"
     inkscape:pageshadow="2"
     inkscape:window-width="690"
     inkscape:window-height="480"
     id="namedview126"
     showgrid="false"
     fit-margin-top="0"
     fit-margin-left="0"
     fit-margin-right="0"
     fit-margin-bottom="0"
     inkscape:zoom="0.66764275"
     inkscape:cx="124.856"
     inkscape:cy="211.883"
     inkscape:window-x="0"
     inkscape:window-y="0"
     inkscape:window-maximized="1"
     inkscape:current-layer="svg124" />
  <defs
     id="defs73">
    <clipPath
       id="_clipPath_BWN7ZNmaHj9yfk1tZSiFCzmZnqB3ge1g">
      <rect
         width="1366"
         height="768"
         id="rect70"
         x="0"
         y="0" />
    </clipPath>
  </defs>
  <g
     clip-path="url(#_clipPath_BWN7ZNmaHj9yfk1tZSiFCzmZnqB3ge1g)"
     id="g122"
     transform="translate(-558.144,-530.23178)">
    <g
       id="g120">
      <g
         id="Group" />
      <g
         id="g76" />
      <g
         id="g118">
        <g
           id="g80">
          <path
             d="m 627.628,561.217 h -11.784 c -0.558,-2.521 -2.945,-4.33 -5.716,-4.334 h -29.347 l 3.085,-1.26 39.562,-16.165 c 0.589,-0.241 0.858,-0.88 0.598,-1.428 -0.022,-0.046 -0.047,-0.091 -0.076,-0.134 l -4.346,-6.5 c -0.307,-0.46 -0.933,-0.639 -1.466,-0.418 l -57.488,23.833 c -0.588,0.243 -0.853,0.884 -0.591,1.43 0.007,0.015 0.014,0.029 0.022,0.043 l 2.659,4.933 h -2.779 c -0.644,0 -1.167,0.485 -1.167,1.083 v 15.167 c 0,0.598 0.523,1.083 1.167,1.083 h 67.667 c 0.644,0 1.166,-0.485 1.166,-1.083 V 562.3 c 0,-0.598 -0.522,-1.083 -1.166,-1.083 z m -17.5,-2.167 c 1.482,0.002 2.804,0.869 3.3,2.167 H 574.16 c 0.497,-1.298 1.818,-2.165 3.301,-2.167 z m -44.649,1.623 12.923,-5.25 43.077,-17.5 -0.218,0.055 -56.086,22.914 z m 6.514,-0.2 c -0.102,0.242 -0.185,0.491 -0.249,0.744 h -1.569 z m 54.468,15.91 h -65.333 l -0.091,-0.335 31.5,0.25 34.327,-0.125 z"
             stroke-miterlimit="4"
             id="path78"
             inkscape:connector-curvature="0"
             style="vector-effect:non-scaling-stroke;fill:#006737;stroke:#006737;stroke-width:1.29999995;stroke-linecap:butt;stroke-linejoin:miter;stroke-miterlimit:4" />
        </g>
        <g
           id="g84">
          <path
             d="m 566.692,568.717 c -1.933,0 -3.5,1.455 -3.5,3.25 0,1.795 1.567,3.25 3.5,3.25 1.933,0 3.5,-1.455 3.5,-3.25 0,-1.795 -1.567,-3.25 -3.5,-3.25 z m 0,4.333 c -0.645,0 -1.167,-0.485 -1.167,-1.083 0,-0.599 0.522,-1.084 1.167,-1.084 0.644,0 1.166,0.485 1.166,1.084 0,0.598 -0.522,1.083 -1.166,1.083 z"
             id="path82"
             inkscape:connector-curvature="0"
             style="fill:#ffffff" />
        </g>
        <g
           id="g88">
          <path
             d="m 573.692,568.717 c -1.933,0 -3.5,1.455 -3.5,3.25 0,1.795 1.567,3.25 3.5,3.25 1.933,0 3.5,-1.455 3.5,-3.25 0,-1.795 -1.567,-3.25 -3.5,-3.25 z m 0,4.333 c -0.645,0 -1.167,-0.485 -1.167,-1.083 0,-0.599 0.522,-1.084 1.167,-1.084 0.644,0 1.166,0.485 1.166,1.084 0,0.598 -0.522,1.083 -1.166,1.083 z"
             id="path86"
             inkscape:connector-curvature="0"
             style="fill:#ffffff" />
        </g>
        <g
           id="g92">
          <path
             d="m 612.531,573.05 h 12.962 c 0.287,0 0.519,0.232 0.519,0.519 v 1.129 c 0,0.286 -0.232,0.519 -0.519,0.519 h -12.962 c -0.286,0 -0.519,-0.233 -0.519,-0.519 v -1.129 c 0,-0.287 0.233,-0.519 0.519,-0.519 z"
             style="fill:#ffffff;stroke:none;stroke-miterlimit:10"
             id="path90"
             inkscape:connector-curvature="0" />
        </g>
        <path
           d="m 572.452,534.451 -3.5,-3.25 c -0.218,-0.203 -0.515,-0.318 -0.824,-0.318 h -8.167 c -0.644,0 -1.167,0.485 -1.167,1.084 v 15.166 c 0,0.599 0.523,1.084 1.167,1.084 h 11.667 c 0.644,0 1.166,-0.485 1.166,-1.084 v -11.916 c 0,-0.288 -0.123,-0.563 -0.342,-0.766 z m -4.324,-0.953 1.85,1.719 h -1.85 z m 2.333,12.552 h -9.333 v -13 h 4.666 v 3.25 c 0,0.598 0.523,1.083 1.167,1.083 h 3.5 z"
           id="path94"
           inkscape:connector-curvature="0"
           style="fill:#006737" />
        <g
           id="g98">
          <path
             d="m 627.628,580.717 h -11.667 c -0.644,0 -1.167,0.485 -1.167,1.083 v 13 c 0,0.598 0.523,1.083 1.167,1.083 h 11.667 c 0.644,0 1.166,-0.485 1.166,-1.083 v -13 c 0,-0.598 -0.522,-1.083 -1.166,-1.083 z m -1.167,13 h -9.333 v -10.834 h 9.333 z"
             id="path96"
             inkscape:connector-curvature="0"
             style="fill:#006737" />
        </g>
        <rect
           x="621.79401"
           y="590.46698"
           width="2.3329999"
           height="2.1670001"
           id="rect100"
           style="fill:#006737" />
        <g
           id="g104">
          <path
             d="m 575.128,536.3 v 2.167 h 8.166 v 3.25 h 2.334 V 536.3 Z"
             id="path102"
             inkscape:connector-curvature="0"
             style="fill:#006737" />
        </g>
        <g
           id="g108">
          <path
             d="m 604.294,583.967 v -3.25 h -2.333 v 5.416 h 10.5 v -2.166 z"
             id="path106"
             inkscape:connector-curvature="0"
             style="fill:#006737" />
        </g>
        <g
           id="g112">
          <rect
             x="612.81"
             y="550.87903"
             width="4.0019999"
             height="2.2780001"
             transform="matrix(0.583,-0.812,0.852,0.528,-214.27,760)"
             id="rect110"
             style="fill:#006737" />
        </g>
        <g
           id="g116">
          <rect
             x="616.82001"
             y="554.68402"
             width="4.1090002"
             height="2.2130001"
             transform="matrix(0.855,-0.519,0.578,0.819,-230.939,421.931)"
             id="rect114"
             style="fill:#006737" />
        </g>
      </g>
    </g>
  </g>
</svg>
