<?xml version="1.0" encoding="UTF-8" standalone="no"?>
<!-- Generator: Gravit.io -->

<svg
   xmlns:dc="http://purl.org/dc/elements/1.1/"
   xmlns:cc="http://creativecommons.org/ns#"
   xmlns:rdf="http://www.w3.org/1999/02/22-rdf-syntax-ns#"
   xmlns:svg="http://www.w3.org/2000/svg"
   xmlns="http://www.w3.org/2000/svg"
   xmlns:sodipodi="http://sodipodi.sourceforge.net/DTD/sodipodi-0.dtd"
   xmlns:inkscape="http://www.inkscape.org/namespaces/inkscape"
   style="isolation:isolate"
   viewBox="0 0 70.999283 66.002457"
   width="70.999283"
   height="66.002457"
   version="1.1"
   id="svg54"
   sodipodi:docname="icon3.svg"
   inkscape:version="0.92.3 (2405546, 2018-03-11)">
  <metadata
     id="metadata58">
    <rdf:RDF>
      <cc:Work
         rdf:about="">
        <dc:format>image/svg+xml</dc:format>
        <dc:type
           rdf:resource="http://purl.org/dc/dcmitype/StillImage" />
        <dc:title></dc:title>
      </cc:Work>
    </rdf:RDF>
  </metadata>
  <sodipodi:namedview
     pagecolor="#ffffff"
     bordercolor="#666666"
     borderopacity="1"
     objecttolerance="10"
     gridtolerance="10"
     guidetolerance="10"
     inkscape:pageopacity="0"
     inkscape:pageshadow="2"
     inkscape:window-width="1366"
     inkscape:window-height="705"
     id="namedview56"
     showgrid="false"
     fit-margin-top="0"
     fit-margin-left="0"
     fit-margin-right="0"
     fit-margin-bottom="0"
     inkscape:zoom="0.66764275"
     inkscape:cx="213.8298"
     inkscape:cy="323.55518"
     inkscape:window-x="-8"
     inkscape:window-y="-8"
     inkscape:window-maximized="1"
     inkscape:current-layer="svg54" />
  <defs
     id="defs38">
    <clipPath
       id="_clipPath_8P1WplTSIRZpaAkOaiQJsK94KvrGyLZO">
      <rect
         width="1366"
         height="768"
         id="rect35"
         x="0"
         y="0" />
    </clipPath>
  </defs>
  <g
     clip-path="url(#_clipPath_8P1WplTSIRZpaAkOaiQJsK94KvrGyLZO)"
     id="g52"
     transform="translate(-469.1702,-701.465)">
    <g
       id="010-trolley">
      <g
         id="g49">
        <g
           id="g47">
          <g
             id="Group">
            <path
               d="m 539.62,746.469 c -0.209,-0.806 -1.008,-1.285 -1.786,-1.068 l -5.225,1.452 -5.438,-21.048 c -0.101,-0.387 -0.345,-0.718 -0.68,-0.918 -0.335,-0.2 -0.733,-0.255 -1.107,-0.151 l -9.852,2.738 -4.152,-16.07 c -0.1,-0.387 -0.345,-0.717 -0.68,-0.918 -0.335,-0.2 -0.733,-0.254 -1.107,-0.15 l -21.128,5.871 -3.018,-11.699 c -0.1,-0.387 -0.344,-0.718 -0.68,-0.918 -0.335,-0.201 -0.733,-0.255 -1.107,-0.151 l -1.784,0.496 c -0.8,-1.205 -2.138,-1.97 -3.61,-1.97 -0.379,0 -0.759,0.052 -1.127,0.154 l -4.226,1.175 c -2.322,0.645 -3.708,3.123 -3.1,5.53 0.002,0.009 0.004,0.017 0.006,0.025 0.512,1.979 2.252,3.362 4.231,3.362 0.38,0 0.759,-0.052 1.128,-0.155 l 4.226,-1.174 c 1.836,-0.51 3.086,-2.166 3.228,-4.028 l 0.374,-0.104 3.017,11.693 c 10e-4,0.002 10e-4,0.004 0.002,0.006 l 0.221,0.857 4.291,16.63 c 0.003,0.015 0.005,0.03 0.009,0.045 l 1.66,6.425 4.15,16.084 c 0.1,0.387 0.344,0.717 0.679,0.918 0.224,0.134 0.476,0.203 0.73,0.203 0.126,0 0.253,-0.017 0.378,-0.052 l 0.758,-0.211 c -0.259,0.994 -0.279,2.069 -0.004,3.133 0.135,0.521 0.334,1.011 0.586,1.462 h -5.076 c -0.805,0 -1.458,0.676 -1.458,1.511 0,0.834 0.653,1.511 1.458,1.511 h 10.115 c 0.003,0 0.005,0 0.007,0 0.002,0 0.003,0 0.004,0 h 3.22 3.219 c 0.805,0 11.58,0.085 11.58,-0.75 0,-0.834 -10.775,-2.272 -11.58,-2.272 h -1.394 c 0.749,-1.342 1.005,-2.98 0.588,-4.592 -0.272,-1.054 -0.805,-1.98 -1.513,-2.713 l 18.425,-5.12 c -0.259,0.994 -0.278,2.069 -0.003,3.133 0.682,2.64 2.997,4.484 5.631,4.484 0.509,0 1.018,-0.07 1.513,-0.207 3.107,-0.864 4.957,-4.186 4.125,-7.407 -0.272,-1.054 -0.805,-1.98 -1.514,-2.713 l 1.759,-0.489 c 0.778,-0.215 1.239,-1.044 1.031,-1.85 z m -60.971,-38.506 -4.226,1.174 c -0.123,0.034 -0.248,0.052 -0.373,0.052 -0.657,0 -1.234,-0.455 -1.409,-1.107 -0.002,-0.005 -0.003,-0.01 -0.004,-0.015 -0.209,-0.806 0.254,-1.638 1.031,-1.854 l 4.226,-1.174 c 0.122,-0.034 0.248,-0.052 0.372,-0.052 0.662,0 1.243,0.461 1.414,1.122 0,0 0,10e-4 0,10e-4 v 10e-4 c 0.207,0.806 -0.255,1.636 -1.031,1.852 z m 21.839,8.032 1.666,6.449 -0.883,-0.187 c -0.45,-0.096 -0.917,0.034 -1.261,0.35 l -0.673,0.619 -1.667,-6.448 z m -11.269,3.132 5.634,-1.566 2.277,8.81 c 0.131,0.506 0.505,0.906 0.989,1.057 0.138,0.043 0.279,0.064 0.419,0.064 0.353,0 0.698,-0.133 0.969,-0.381 l 1.894,-1.742 2.48,0.526 c 0.495,0.105 1.007,-0.063 1.354,-0.444 0.346,-0.381 0.478,-0.921 0.347,-1.427 l -2.277,-8.812 5.635,-1.566 3.775,14.611 -19.721,5.48 z m 23.092,19.284 -0.884,-0.188 c -0.45,-0.096 -0.917,0.035 -1.26,0.35 l -0.674,0.62 -1.667,-6.449 2.818,-0.783 z m -7.025,25.428 c -0.247,0.069 -0.501,0.104 -0.753,0.104 h -0.008 c -1.314,-0.002 -2.469,-0.923 -2.81,-2.244 -0.416,-1.61 0.506,-3.27 2.056,-3.704 l 0.015,-0.004 c 0.246,-0.068 0.498,-0.102 0.749,-0.102 1.315,0 2.472,0.922 2.814,2.243 0.416,1.612 -0.509,3.275 -2.063,3.707 z m -0.855,-9.157 -2.03,-7.855 c -0.208,-0.806 -1.007,-1.285 -1.786,-1.069 -0.778,0.216 -1.24,1.044 -1.031,1.85 l 2.03,7.857 -2.813,0.782 -3.783,-14.645 -1.276,-4.944 11.267,-3.131 2.277,8.811 c 0.131,0.506 0.505,0.906 0.989,1.056 0.138,0.043 0.28,0.064 0.42,0.064 0.352,0 0.697,-0.132 0.968,-0.381 l 1.894,-1.741 2.48,0.526 c 0.496,0.105 1.008,-0.064 1.354,-0.445 0.347,-0.381 0.478,-0.921 0.348,-1.426 l -2.277,-8.812 5.634,-1.566 2.03,7.856 c 0.174,0.675 0.763,1.121 1.407,1.121 0.125,0 0.252,-0.017 0.378,-0.052 0.779,-0.216 1.24,-1.045 1.032,-1.851 l -2.03,-7.857 2.818,-0.783 5.06,19.588 z m 29.033,1.327 c -0.249,0.069 -0.504,0.104 -0.758,0.104 -1.315,0 -2.472,-0.922 -2.814,-2.243 -0.416,-1.611 0.507,-3.272 2.058,-3.705 l 0.012,-0.004 c 0.246,-0.068 0.499,-0.102 0.75,-0.102 1.316,0 2.473,0.922 2.814,2.243 0.417,1.613 -0.508,3.275 -2.062,3.707 z"
               stroke-miterlimit="4"
               id="path40"
               inkscape:connector-curvature="0"
               style="vector-effect:non-scaling-stroke;fill:#006737;stroke:#006737;stroke-width:1;stroke-linecap:butt;stroke-linejoin:miter;stroke-miterlimit:4" />
            <path
               d="m 524.195,740.769 c -0.778,0.216 -1.24,1.044 -1.032,1.85 l 0.147,0.57 c 0.174,0.676 0.764,1.121 1.408,1.121 0.125,0 0.251,-0.016 0.378,-0.052 0.778,-0.215 1.24,-1.043 1.032,-1.85 l -0.147,-0.569 c -0.209,-0.807 -1.008,-1.286 -1.786,-1.07 z"
               id="path42"
               inkscape:connector-curvature="0"
               style="fill:#006737" />
            <path
               d="m 501.181,741.105 c -0.209,-0.806 -1.007,-1.285 -1.786,-1.068 -0.778,0.216 -1.24,1.044 -1.031,1.85 l 0.147,0.57 c 0.175,0.675 0.764,1.12 1.408,1.12 0.125,0 0.252,-0.016 0.378,-0.052 0.778,-0.216 1.24,-1.044 1.031,-1.85 z"
               id="path44"
               inkscape:connector-curvature="0"
               style="fill:#006737" />
          </g>
        </g>
      </g>
    </g>
  </g>
</svg>
