<?xml version="1.0" encoding="UTF-8" standalone="no"?>
<!-- Generator: Gravit.io -->

<svg
   xmlns:dc="http://purl.org/dc/elements/1.1/"
   xmlns:cc="http://creativecommons.org/ns#"
   xmlns:rdf="http://www.w3.org/1999/02/22-rdf-syntax-ns#"
   xmlns:svg="http://www.w3.org/2000/svg"
   xmlns="http://www.w3.org/2000/svg"
   xmlns:sodipodi="http://sodipodi.sourceforge.net/DTD/sodipodi-0.dtd"
   xmlns:inkscape="http://www.inkscape.org/namespaces/inkscape"
   style="isolation:isolate"
   viewBox="0 0 60.500031 56.214001"
   width="60.500031"
   height="56.214001"
   version="1.1"
   id="svg118"
   sodipodi:docname="icon4.svg"
   inkscape:version="0.92.3 (2405546, 2018-03-11)">
  <metadata
     id="metadata122">
    <rdf:RDF>
      <cc:Work
         rdf:about="">
        <dc:format>image/svg+xml</dc:format>
        <dc:type
           rdf:resource="http://purl.org/dc/dcmitype/StillImage" />
        <dc:title></dc:title>
      </cc:Work>
    </rdf:RDF>
  </metadata>
  <sodipodi:namedview
     pagecolor="#ffffff"
     bordercolor="#666666"
     borderopacity="1"
     objecttolerance="10"
     gridtolerance="10"
     guidetolerance="10"
     inkscape:pageopacity="0"
     inkscape:pageshadow="2"
     inkscape:window-width="1366"
     inkscape:window-height="705"
     id="namedview120"
     showgrid="false"
     fit-margin-top="0"
     fit-margin-left="0"
     fit-margin-right="0"
     fit-margin-bottom="0"
     inkscape:zoom="0.2079063"
     inkscape:cx="74.27703"
     inkscape:cy="48.134"
     inkscape:window-x="-8"
     inkscape:window-y="-8"
     inkscape:window-maximized="1"
     inkscape:current-layer="svg118" />
  <defs
     id="defs95">
    <clipPath
       id="_clipPath_TpwWLgTGuaYklnldz2LrXvz7a6xYLvbm">
      <rect
         width="1366"
         height="768"
         id="rect92"
         x="0"
         y="0" />
    </clipPath>
  </defs>
  <g
     clip-path="url(#_clipPath_TpwWLgTGuaYklnldz2LrXvz7a6xYLvbm)"
     id="g116"
     transform="translate(-608.72297,-375.92)">
    <g
       id="courier">
      <g
         id="XMLID_1282_">
        <g
           id="g112">
          <g
             id="g110">
            <g
               id="Group">
              <path
                 d="m 638.974,401.911 c -0.252,0.04 -0.51,0.062 -0.774,0.062 h -1.282 c -0.233,0.601 -0.639,1.146 -1.202,1.56 v 18.821 c 0,0.854 0.73,1.546 1.629,1.546 h 8.328 v -3.091 h -6.699 z"
                 id="path97"
                 inkscape:connector-curvature="0"
                 style="fill:#006737" />
              <path
                 d="m 667.594,375.92 h -30.249 c -0.899,0 -1.629,0.692 -1.629,1.546 v 10.452 h 2.484 c 0.264,0 0.522,0.022 0.774,0.063 v -8.97 h 26.991 v 41.798 h -4.407 l 0.009,3.091 h 6.027 c 0.899,0 1.629,-0.692 1.629,-1.546 v -44.888 c 0,-0.854 -0.729,-1.546 -1.629,-1.546 z"
                 id="path99"
                 inkscape:connector-curvature="0"
                 style="fill:#006737" />
              <path
                 d="m 656.218,390.605 h -5.199 c -1.611,0 -2.915,1.239 -2.915,2.766 v 1.752 l 1.495,-0.166 4.056,-2.018 -4.276,4.032 -6.538,0.727 c -1.143,0.128 -1.96,1.109 -1.826,2.193 0.135,1.088 1.174,1.859 2.311,1.732 l 7.253,-0.808 c 0.463,-0.051 0.895,-0.248 1.225,-0.56 l 4.787,-4.513 -3.319,5.914 c -0.58,1.034 -1.572,1.024 -2.45,1.121 l -2.718,0.303 -0.045,22.009 c 0,1.309 1.118,2.371 2.498,2.371 10e-4,0 10e-4,0 10e-4,0 1.379,0 2.498,-1.061 2.498,-2.37 l 0.002,-17.528 h 1.078 c 0,0.003 -10e-4,0.005 -10e-4,0.007 l 0.035,11.495 0.018,6.032 c 0.004,1.307 1.122,2.364 2.498,2.364 0.003,0 0.005,0 0.008,0 1.38,-0.004 2.495,-1.068 2.491,-2.377 l -0.051,-31.712 c 0,-1.528 -1.306,-2.766 -2.916,-2.766 z"
                 stroke-miterlimit="4"
                 id="path101"
                 inkscape:connector-curvature="0"
                 style="vector-effect:non-scaling-stroke;fill:#006737;stroke:#006737;stroke-width:1;stroke-linecap:butt;stroke-linejoin:miter;stroke-miterlimit:4" />
              <path
                 d="m 653.596,389.214 c 1.004,0 1.927,-0.327 2.66,-0.872 1.008,-0.749 1.656,-1.914 1.656,-3.223 0,-2.261 -1.932,-4.095 -4.316,-4.095 -2.383,0 -4.316,1.834 -4.316,4.095 0,1.309 0.649,2.475 1.658,3.224 0.733,0.545 1.655,0.871 2.658,0.871 z"
                 stroke-miterlimit="4"
                 id="path103"
                 inkscape:connector-curvature="0"
                 style="vector-effect:non-scaling-stroke;fill:#006737;stroke:#006737;stroke-width:3;stroke-linecap:butt;stroke-linejoin:miter;stroke-miterlimit:4" />
              <path
                 d="m 635.102,400.168 h 3.098 c 0.252,0 0.493,-0.04 0.72,-0.111 0.019,-1.176 0.604,-2.249 1.536,-2.959 v -4.21 c 0,-1.166 -1.01,-2.111 -2.256,-2.111 h -5.529 c -1.247,0 -2.257,0.945 -2.257,2.111 v 5.17 c 0,0.858 0.548,1.595 1.335,1.925 l -2.203,1.284 c -0.024,-0.021 -0.047,-0.043 -0.071,-0.064 l -0.017,-3.202 c -0.007,-1.228 -0.555,-2.339 -1.43,-3.137 -0.853,-0.777 -2.015,-1.257 -3.294,-1.257 -1.126,0 -9.61,0 -10.714,0 -2.592,0 -4.711,1.971 -4.724,4.394 l -0.073,13.712 c -0.006,1.031 0.883,1.87 1.986,1.876 0.003,0 0.006,0 0.01,0 1.081,0 1.99,-0.82 1.996,-1.857 0.015,-2.882 0.06,-11.292 0.073,-13.712 10e-4,-0.199 0.174,-0.359 0.387,-0.359 0.212,10e-4 0.384,0.162 0.384,0.361 0,4.823 10e-4,31.373 10e-4,31.373 0,1.237 1.072,2.239 2.395,2.239 1.307,0 2.395,-0.997 2.395,-2.239 v -17.902 h 1.034 v 17.902 c 0,1.235 1.072,2.239 2.395,2.239 1.323,0 2.395,-1.002 2.395,-2.239 0,0 -0.042,-16.879 -0.043,-31.377 0,-0.216 0.187,-0.39 0.418,-0.39 0.23,0 0.417,0.174 0.417,0.39 0,0.001 0,0.001 0,0.002 0.023,4.14 0.011,2.079 0.036,6.649 0.008,1.469 1.737,2.341 3.052,1.575 l 5.941,-3.463 c 0.925,-0.539 1.226,-1.689 0.638,-2.572 -0.01,-0.014 -0.021,-0.027 -0.031,-0.041 z"
                 stroke-miterlimit="4"
                 id="path105"
                 inkscape:connector-curvature="0"
                 style="vector-effect:non-scaling-stroke;fill:#006737;stroke:#006737;stroke-width:1;stroke-linecap:butt;stroke-linejoin:miter;stroke-miterlimit:4" />
              <path
                 d="m 619.394,391.801 c 2.102,0 3.837,-1.488 4.101,-3.415 1.853,0 2.102,0 4.003,0 0.756,0 1.369,-0.582 1.369,-1.299 0,-0.718 -0.613,-1.299 -1.369,-1.299 -1.603,0 -3.004,0 -4.603,0 -0.733,-1.104 -2.027,-1.836 -3.501,-1.836 -2.284,0 -4.136,1.757 -4.136,3.925 0,2.167 1.852,3.924 4.136,3.924 z"
                 stroke-miterlimit="4"
                 id="path107"
                 inkscape:connector-curvature="0"
                 style="vector-effect:non-scaling-stroke;fill:#006737;stroke:#006737;stroke-width:3;stroke-linecap:butt;stroke-linejoin:miter;stroke-miterlimit:4" />
            </g>
          </g>
        </g>
      </g>
    </g>
  </g>
</svg>
