<?xml version="1.0" encoding="UTF-8" standalone="no"?>
<!-- Created with Inkscape (http://www.inkscape.org/) -->

<svg
   xmlns:dc="http://purl.org/dc/elements/1.1/"
   xmlns:cc="http://creativecommons.org/ns#"
   xmlns:rdf="http://www.w3.org/1999/02/22-rdf-syntax-ns#"
   xmlns:svg="http://www.w3.org/2000/svg"
   xmlns="http://www.w3.org/2000/svg"
   xmlns:sodipodi="http://sodipodi.sourceforge.net/DTD/sodipodi-0.dtd"
   xmlns:inkscape="http://www.inkscape.org/namespaces/inkscape"
   width="13.229166mm"
   height="12.793384mm"
   viewBox="0 0 13.229166 12.793384"
   version="1.1"
   id="svg8"
   inkscape:version="0.92.3 (2405546, 2018-03-11)"
   sodipodi:docname="mailchasqui.svg">
  <defs
     id="defs2" />
  <sodipodi:namedview
     id="base"
     pagecolor="#ffffff"
     bordercolor="#666666"
     borderopacity="1.0"
     inkscape:pageopacity="0.0"
     inkscape:pageshadow="2"
     inkscape:zoom="1.979899"
     inkscape:cx="305.00264"
     inkscape:cy="47.958668"
     inkscape:document-units="mm"
     inkscape:current-layer="layer1"
     showgrid="false"
     units="px"
     inkscape:pagecheckerboard="true"
     inkscape:showpageshadow="true"
     fit-margin-top="0"
     fit-margin-left="0"
     fit-margin-right="0"
     fit-margin-bottom="0"
     inkscape:window-width="1366"
     inkscape:window-height="705"
     inkscape:window-x="-8"
     inkscape:window-y="-8"
     inkscape:window-maximized="1" />
  <metadata
     id="metadata5">
    <rdf:RDF>
      <cc:Work
         rdf:about="">
        <dc:format>image/svg+xml</dc:format>
        <dc:type
           rdf:resource="http://purl.org/dc/dcmitype/StillImage" />
        <dc:title></dc:title>
      </cc:Work>
    </rdf:RDF>
  </metadata>
  <g
     inkscape:label="Capa 1"
     inkscape:groupmode="layer"
     id="layer1"
     transform="translate(-31.296427,-166.76826)">
    <g
       id="g3812"
       transform="matrix(0.16632929,0,0,0.16632929,31.296427,166.55037)">
      <g
         id="g3756">
	<path
   id="path3754"
   d="M 39.773,1.31 0,31.004 V 78.226 H 79.536 V 31.004 Z M 28.77,22.499 c 1.167,-2.133 2.775,-3.739 4.815,-4.805 2.035,-1.075 4.357,-1.616 6.983,-1.616 2.214,0 4.191,0.435 5.921,1.292 1.729,0.87 3.045,2.094 3.967,3.687 0.9,1.595 1.367,3.334 1.367,5.217 0,2.247 -0.694,4.279 -2.082,6.097 -1.74,2.292 -3.961,3.436 -6.68,3.436 -0.732,0 -1.279,-0.122 -1.654,-0.38 -0.365,-0.262 -0.621,-0.632 -0.743,-1.129 -1.022,1.012 -2.231,1.52 -3.589,1.52 -1.465,0 -2.679,-0.507 -3.643,-1.509 -0.966,-1.012 -1.447,-2.361 -1.447,-4.031 0,-2.084 0.578,-3.966 1.743,-5.672 1.416,-2.084 3.218,-3.13 5.424,-3.13 1.571,0 2.731,0.601 3.475,1.805 l 0.331,-1.468 h 3.5 l -1.998,9.479 c -0.125,0.606 -0.187,0.986 -0.187,1.163 0,0.228 0.052,0.38 0.149,0.497 0.099,0.111 0.223,0.165 0.357,0.165 0.436,0 0.979,-0.248 1.646,-0.769 0.901,-0.663 1.627,-1.574 2.181,-2.695 0.554,-1.129 0.839,-2.299 0.839,-3.508 0,-2.165 -0.782,-3.977 -2.352,-5.445 -1.573,-1.45 -3.77,-2.185 -6.578,-2.185 -2.393,0 -4.417,0.487 -6.077,1.468 -1.66,0.966 -2.913,2.343 -3.765,4.114 -0.839,1.76 -1.258,3.607 -1.258,5.52 0,1.856 0.479,3.552 1.411,5.074 0.945,1.533 2.26,2.641 3.956,3.345 1.696,0.697 3.643,1.046 5.828,1.046 2.097,0 3.909,-0.293 5.432,-0.881 1.522,-0.587 2.739,-1.457 3.666,-2.641 h 2.807 c -0.88,1.792 -2.227,3.192 -4.049,4.215 -2.092,1.163 -4.64,1.74 -7.644,1.74 -2.918,0 -5.426,-0.487 -7.542,-1.468 -2.121,-0.986 -3.689,-2.434 -4.73,-4.35 -1.028,-1.918 -1.535,-4.008 -1.535,-6.268 0.002,-2.477 0.58,-4.789 1.755,-6.93 z M 2.804,31.941 32.148,51.621 2.804,74.333 Z M 5.033,75.844 39.773,48.959 74.502,75.844 Z M 76.729,74.333 47.391,51.621 76.73,31.941 V 74.333 Z M 41.205,24.661 c 0.466,0.531 0.699,1.295 0.699,2.292 0,0.891 -0.174,1.856 -0.513,2.879 -0.334,1.036 -0.743,1.826 -1.209,2.361 -0.318,0.375 -0.658,0.652 -0.992,0.826 -0.439,0.249 -0.906,0.37 -1.41,0.37 -0.674,0.006 -1.23,-0.264 -1.691,-0.794 -0.45,-0.531 -0.673,-1.346 -0.673,-2.465 0,-0.839 0.158,-1.805 0.487,-2.889 0.329,-1.088 0.81,-1.916 1.453,-2.509 0.647,-0.588 1.346,-0.881 2.1,-0.881 0.706,0.005 1.293,0.274 1.749,0.81 z"
   inkscape:connector-curvature="0"
   style="fill:#0062aa" />

</g>
      <g
         id="g3758">
</g>
      <g
         id="g3760">
</g>
      <g
         id="g3762">
</g>
      <g
         id="g3764">
</g>
      <g
         id="g3766">
</g>
      <g
         id="g3768">
</g>
      <g
         id="g3770">
</g>
      <g
         id="g3772">
</g>
      <g
         id="g3774">
</g>
      <g
         id="g3776">
</g>
      <g
         id="g3778">
</g>
      <g
         id="g3780">
</g>
      <g
         id="g3782">
</g>
      <g
         id="g3784">
</g>
      <g
         id="g3786">
</g>
    </g>
  </g>
</svg>
